<?xml version="1.0" encoding="utf-8"?>
<svg xmlns="http://www.w3.org/2000/svg" class="icon icon-tabler " width="24" height="24" viewBox="0 0 24 24" stroke-width="2" stroke="currentColor" fill="none" stroke-linecap="round" stroke-linejoin="round">
  <path stroke="none" d="M0 0h24v24H0z" fill="none"/>
  <path d="M 6.335 4.147 C 8.627 5.921 11.094 9.518 12 11.449 C 12.905 9.519 15.372 5.921 17.664 4.147 C 19.319 2.868 22 1.877 22 5.029 C 22 5.658 21.649 10.316 21.444 11.073 C 20.73 13.701 18.129 14.372 15.815 13.966 C 19.86 14.676 20.888 17.025 18.667 19.375 C 14.446 23.839 12.601 18.256 12.127 16.826 C 12.041 16.563 12 16.44 12 16.544 C 11.999 16.44 11.958 16.563 11.872 16.826 C 11.399 18.256 9.553 23.84 5.332 19.375 C 3.111 17.025 4.139 14.675 8.184 13.966 C 5.87 14.372 3.269 13.701 2.555 11.073 C 2.35 10.316 2 5.658 2 5.029 C 2 1.877 4.68 2.868 6.335 4.147 Z" />
</svg>