<svg xmlns="http://www.w3.org/2000/svg" class="icon icon-tabler icon-tabler-brand-bluesky" width="24" height="24" viewBox="0 0 24 24" stroke-width="2" stroke="currentColor" fill="none" stroke-linecap="round" stroke-linejoin="round">
  <path stroke="none" d="M0 0h24v24H0z" fill="none"/>
  <path d="M 6.307 4.451 C 8.615 6.202 11.099 9.759 12.012 11.668 C 12.923 9.76 15.407 6.202 17.717 4.451 C 19.383 3.185 22.083 2.207 22.083 5.321 C 22.083 5.944 21.73 10.549 21.524 11.294 C 20.804 13.893 18.184 14.557 15.854 14.155 C 19.928 14.858 20.964 17.179 18.726 19.501 C 14.477 23.912 12.618 18.395 12.14 16.981 C 12.054 16.722 12.012 16.6 12.012 16.703 C 12.012 16.6 11.97 16.722 11.882 16.981 C 11.407 18.395 9.547 23.912 5.297 19.501 C 3.059 17.179 4.095 14.858 8.17 14.155 C 5.837 14.557 3.219 13.893 2.499 11.294 C 2.294 10.549 1.94 5.944 1.94 5.321 C 1.94 2.207 4.64 3.185 6.307 4.451 Z" style="transform-box: fill-box; transform-origin: 50% 50%;" />
</svg>