<?xml version="1.0" encoding="utf-8"?>
<svg version="1.1" viewBox="0 0 24 24" xmlns="http://www.w3.org/2000/svg" class="icon icon-tabler" width="24" height="24" stroke-width="2" stroke="currentColor" fill="none" stroke-linecap="round" stroke-linejoin="round">
  <g transform="matrix(0.1521, 0, 0, 0.159514, 2.028044, 2)">
    <path stroke="none" d="M0 0h24v24H0z" fill="none"/>
    <path d="M 10.89 13.792 C 8.778 13.792 6.766 14.144 4.856 14.848 C 1.437 16.054 -1.379 18.217 -3.591 21.334 C -5.703 24.352 -6.759 27.72 -6.759 31.441 L -6.759 97.51 C -6.759 102.337 -5.05 106.51 -1.63 110.03 C 1.889 113.449 6.063 115.159 10.89 115.159 C 15.817 115.159 19.99 113.449 23.41 110.03 C 26.929 106.51 28.688 102.337 28.688 97.51 L 28.688 85.496 C 28.727 82.894 31.407 83.576 32.762 85.496 C 35.3 89.889 40.678 93.662 46.941 93.641 C 53.204 93.62 58.405 90.523 61.12 85.496 C 62.148 84.283 65.047 82.217 65.344 85.496 L 65.344 97.51 C 65.344 102.337 67.053 106.51 70.472 110.03 C 73.992 113.449 78.166 115.159 82.992 115.159 C 87.919 115.159 92.093 113.449 95.512 110.03 C 99.032 106.51 100.791 102.337 100.791 97.51 L 100.791 31.441 C 100.791 27.72 99.686 24.352 97.473 21.334 C 95.362 18.217 92.596 16.054 89.177 14.848 C 87.165 14.144 85.154 13.792 83.143 13.792 C 77.713 13.792 73.137 15.904 69.417 20.128 L 51.506 41.089 C 51.104 41.391 49.771 43.697 46.941 43.697 C 44.11 43.697 42.928 41.391 42.527 41.089 L 24.466 20.128 C 20.845 15.904 16.32 13.792 10.89 13.792 Z M 122.497 13.792 C 118.273 13.792 114.653 15.301 111.636 18.318 C 108.72 21.234 107.262 24.804 107.262 29.028 C 107.262 33.251 108.72 36.871 111.636 39.889 C 114.653 42.805 118.273 44.263 122.497 44.263 C 126.72 44.263 130.34 42.805 133.357 39.889 C 136.375 36.871 137.882 33.251 137.882 29.028 C 137.882 24.804 136.375 21.234 133.357 18.318 C 130.34 15.301 126.72 13.792 122.497 13.792 Z M 122.647 47.279 C 118.423 47.279 114.804 48.788 111.787 51.804 C 108.769 54.822 107.262 58.442 107.262 62.665 L 107.262 99.923 C 107.262 104.147 108.769 107.768 111.787 110.784 C 114.804 113.701 118.423 115.159 122.647 115.159 C 126.871 115.159 130.441 113.701 133.357 110.784 C 136.375 107.768 137.883 104.147 137.883 99.923 L 137.883 62.665 C 137.883 58.442 136.375 54.822 133.357 51.804 C 130.441 48.788 126.871 47.279 122.647 47.279 Z" style="stroke-width: 9px; transform-origin: -6.759px 13.792px;"/>
  </g>
</svg>